<?xml version="1.0" encoding="UTF-8"?>
<svg xmlns="http://www.w3.org/2000/svg" id="Solid" width="512" height="512" viewBox="0 0 512 512"><g><rect x="72" y="144" width="368" height="48"/><circle cx="80" cy="248" r="8"/><circle cx="80" cy="312" r="8"/><path d="M312.877,268.416l4.682,29.224c5.878,31.379,23.8,59.3,50.486,78.622l8.121,5.882,7.057-5.046c27.068-19.352,45.231-47.445,51.151-79.11l4.747-29.574L376,240.735Zm108.78,17.241-48,48a8,8,0,0,1-11.314,0l-24-24,11.314-11.314L368,316.687l42.343-42.344Z"/><circle cx="80" cy="376" r="8"/><path d="M325.657,445.657A8,8,0,0,1,320,448H192a8,8,0,0,1-5.656-2.343L172.687,432H32v22a10,10,0,0,0,10,10H470a10,10,0,0,0,10-10V432H339.313Z"/><path d="M32,58V96H480V58a10,10,0,0,0-10-10H42A10,10,0,0,0,32,58ZM64,80H48V64H64Zm32,0H80V64H96Zm32,0H112V64h16Zm336,0H448V64h16Z"/><path d="M32,416H176a8,8,0,0,1,5.657,2.343L195.313,432H316.687l13.656-13.657A8,8,0,0,1,336,416H480V112H32Zm144-16H120V384h56Zm-56-32V352H240v16Zm168-48v16H216V320Zm-8-80V224h32v16Zm24,112v16H256V352Zm-40-48V288h16v16Zm16-32H168V256H280Zm-16-32H120V224H264ZM152,256v16H120V256Zm96,32v16H120V288Zm-48,32v16H120V320Zm128,80H192V384H328ZM455.9,264.84l-5.743,35.783c-.011.065-.022.131-.034.2-6.662,35.792-27.115,67.5-57.593,89.295l-11.741,8.394a8,8,0,0,1-9.346-.029l-12.783-9.259c-30.044-21.761-50.233-53.278-56.847-88.745-.013-.067-.025-.135-.036-.2L296.1,264.838a8,8,0,0,1,4.686-8.591l72-31.574a8.009,8.009,0,0,1,6.426,0l72,31.573A8,8,0,0,1,455.9,264.84ZM56,136a8,8,0,0,1,8-8H448a8,8,0,0,1,8,8v64a8,8,0,0,1-8,8H64a8,8,0,0,1-8-8Zm24,88a24,24,0,1,1-24,24A24.027,24.027,0,0,1,80,224Zm0,64a24,24,0,1,1-24,24A24.027,24.027,0,0,1,80,288Zm0,64a24,24,0,1,1-24,24A24.027,24.027,0,0,1,80,352Z"/></g></svg>
