<svg height="512pt" viewBox="0 -42 512.00066 512" width="512pt" xmlns="http://www.w3.org/2000/svg"><path d="m487.101562 146.617188-42.0625-26.6875v-117.164063h-105.285156v50.367187l-83.746094-53.132812-231.109374 146.625c-23.613282 13.914062-31.898438 44.566406-18.460938 68.492188 6.699219 11.921874 17.652344 20.472656 30.847656 24.074218 4.445313 1.210938 8.957032 1.8125 13.4375 1.8125 8.023438 0 15.945313-1.949218 23.214844-5.726562v193.308594h364.125v-193.296876c11.324219 5.886719 24.238281 7.277344 36.640625 3.894532 13.1875-3.59375 24.144531-12.136719 30.84375-24.054688 13.460937-23.929687 5.179687-54.589844-18.445313-68.511718zm-117.339843-113.847657h45.269531v68.121094l-45.269531-28.71875zm-265.816407 183.410157 41.867188-26.988282c-.394531 3.1875-1.292969 6.222656-2.707031 8.695313l-7.105469 12.402343c-9.324219 16.273438-9.238281 38.921876.207031 55.070313l6.726563 11.5c3.996094 6.832031 4.039062 18.03125.09375 24.964844l-7.175782 12.613281c-9.21875 16.207031-9.132812 38.75.203126 54.832031l6.875 11.835938c2.738281 4.710937 3.605468 11.464843 2.597656 17.472656h-41.582032zm238.914063-3.378907 7.105469 12.402344c3.96875 6.929687 3.9375 18.148437-.074219 25.003906l-6.722656 11.5c-9.414063 16.09375-9.527344 38.691407-.277344 54.949219l7.175781 12.621094c3.933594 6.90625 3.898438 18.085937-.070312 24.921875l-6.871094 11.835937c-5.515625 9.492188-7.777344 21.203125-6.84375 32.542969h-160.5625c.9375-11.339844-1.328125-23.054687-6.839844-32.542969l-6.875-11.835937c-3.96875-6.835938-4-18.015625-.070312-24.925781l7.175781-12.613282c9.25-16.261718 9.136719-38.859375-.273437-54.953125l-6.726563-11.5c-4.011719-6.855469-4.042969-18.074219-.074219-25.003906l7.105469-12.40625c6.96875-12.160156 8.660156-27.980469 5.097656-41.933594l81.769531-52.71875 81.753907 52.710938c-3.566407 13.953125-1.871094 29.777343 5.097656 41.945312zm23.613281 185.777344c-1.007812-6.007813-.140625-12.761719 2.59375-17.472656l6.875-11.835938c9.339844-16.082031 9.421875-38.625.207032-54.828125l-7.179688-12.617187c-3.941406-6.933594-3.898438-18.132813.097656-24.964844l6.726563-11.5c9.445312-16.148437 9.53125-38.796875.207031-55.070313l-7.105469-12.402343c-1.417969-2.476563-2.316406-5.515625-2.707031-8.707031l41.867188 26.992187v182.40625zm112.921875-198.15625c-2.734375 4.859375-7.203125 8.347656-12.585937 9.8125-5.28125 1.441406-10.796875.757813-15.5625-1.917969l-195.238282-125.871094-195.253906 125.878907c-4.765625 2.679687-10.285156 3.359375-15.570312 1.917969-5.378906-1.46875-9.851563-4.957032-12.582032-9.820313-5.503906-9.800781-2.074218-22.363281 7.644532-28.011719l.253906-.144531 215.507812-136.730469 215.246094 136.5625.5.304688c9.726563 5.648437 13.152344 18.21875 7.640625 28.019531zm0 0"/><path d="m199.613281 305.445312h112.773438v-112.773437h-112.773438zm30.007813-82.769531h52.757812v52.761719h-52.757812zm0 0"/></svg>